<?xml version="1.0" encoding="UTF-8" standalone="no"?>
<!-- Created with Inkscape (http://www.inkscape.org/) -->

<svg
   width="800mm"
   height="500mm"
   viewBox="0 0 800 500"
   version="1.1"
   id="svg1"
   inkscape:version="1.1.2 (0a00cf5339, 2022-02-04)"
   sodipodi:docname="hat_tiling.svg"
   xmlns:inkscape="http://www.inkscape.org/namespaces/inkscape"
   xmlns:sodipodi="http://sodipodi.sourceforge.net/DTD/sodipodi-0.dtd"
   xmlns="http://www.w3.org/2000/svg"
   xmlns:svg="http://www.w3.org/2000/svg">
  <sodipodi:namedview
     id="namedview1"
     pagecolor="#ffffff"
     bordercolor="#000000"
     borderopacity="0.25"
     inkscape:showpageshadow="2"
     inkscape:pageopacity="0.0"
     inkscape:pagecheckerboard="0"
     inkscape:deskcolor="#d1d1d1"
     inkscape:document-units="mm"
     inkscape:zoom="0.088885502"
     inkscape:cx="1254.4228"
     inkscape:cy="1597.5609"
     inkscape:window-width="1366"
     inkscape:window-height="683"
     inkscape:window-x="0"
     inkscape:window-y="0"
     inkscape:window-maximized="1"
     inkscape:current-layer="layer1"
     inkscape:pageshadow="2"
     showgrid="false" />
  <defs
     id="defs1" />
  <g
     inkscape:label="Layer 1"
     inkscape:groupmode="layer"
     id="layer1">
    <path
       style="fill:#00ccff;stroke:#0b2822;stroke-width:1;stroke-miterlimit:4;stroke-dasharray:none"
       d="m 550.92907,105.87145 -20.91232,-36.221081 -41.82451,-6e-5 5e-5,-24.14742 -20.91235,-12.07367 20.91227,-36.2211099 h 41.82452 l 2e-5,-24.1474101 20.91224,-12.07373 20.91227,36.2211301 -20.9122,36.2211299 20.91226,12.07372 3e-5,48.29477 z"
       id="path7-5-83-9-5" />
    <path
       style="fill:#00ccff;stroke:#0b2822;stroke-width:1;stroke-miterlimit:4;stroke-dasharray:none"
       d="m 467.27989,178.31365 20.91232,-36.22108 41.82451,-6e-5 -5e-5,-24.14741 20.91235,-12.07367 -20.91227,-36.221121 h -41.82451 l -3e-5,-24.14741 -20.91224,-12.07373 -20.91227,36.22114 20.91221,36.221121 -20.91227,12.07373 -2e-5,48.29476 z"
       id="path7-0-0-01" />
    <path
       style="fill:#00ccff;stroke:#0b2822;stroke-width:1;stroke-miterlimit:4;stroke-dasharray:none"
       d="m 592.75352,105.87138 -20.91221,36.22114 20.9122,36.22112 -20.9123,12.07366 7e-5,24.14746 h -41.82454 l -20.91227,-36.2211 -20.91227,12.07369 -20.91228,-12.07366 20.91229,-36.22113 41.82451,-5e-5 2e-5,-24.14742 41.82448,-24.147411 z"
       id="path7-5-0-0-3-2" />
    <path
       style="fill:#00ccff;stroke:#0b2822;stroke-width:1;stroke-miterlimit:4;stroke-dasharray:none"
       d="m 404.54311,214.53472 41.82453,-6e-5 20.91231,-36.22106 20.91225,12.07375 20.91228,-12.07379 20.91227,36.22112 -20.91227,36.2211 20.91227,12.07372 4e-5,24.14739 -41.82456,-1e-5 -20.91231,-36.22106 -20.91228,12.07369 -41.82451,-24.14735 z"
       id="path7-5-5-8-0-21" />
    <path
       style="fill:#00ccff;stroke:#0b2822;stroke-width:1;stroke-miterlimit:4;stroke-dasharray:none"
       d="m 383.6308,105.87135 20.91232,36.22108 41.82451,5e-5 -5e-5,24.14743 20.91235,12.07367 -20.91227,36.2211 h -41.82453 l -1e-5,24.14741 -20.91224,12.07373 -20.91227,-36.22113 20.91221,-36.22112 -20.91227,-12.07373 -3e-5,-48.29476 z"
       id="path7-5-8-7-3-18" />
    <path
       style="fill:#00ccff;stroke:#0b2822;stroke-width:1;stroke-miterlimit:4;stroke-dasharray:none"
       d="m 467.27987,33.429099 -20.91221,36.22114 20.9122,36.221121 -20.9123,12.07366 7e-5,24.14746 h -41.82454 l -20.91227,-36.2211 -20.91227,12.07369 -20.91228,-12.07366 20.91229,-36.221131 41.82451,-5e-5 2e-5,-24.14742 41.82448,-24.14741 z"
       id="path7-5-6-1-2-5" />
    <path
       style="fill:#00ccff;stroke:#0b2822;stroke-width:1;stroke-miterlimit:4;stroke-dasharray:none"
       d="m 425.45532,-39.013121 -20.91221,36.2211401 20.9122,36.2211199 -20.9123,12.07366 7e-5,24.14746 h -41.82454 l -20.91227,-36.2211 -20.91227,12.07369 -20.91228,-12.07366 20.91229,-36.2211299 41.82451,-5e-5 2e-5,-24.1474201 41.82448,-24.14741 z"
       id="path7-5-58-7-8-9" />
    <path
       style="fill:#00ccff;stroke:#0b2822;stroke-width:1;stroke-miterlimit:4;stroke-dasharray:none"
       d="m 530.0167,-2.7920509 -41.82453,6e-5 -20.91231,36.2210599 -20.91225,-12.07375 -20.91228,12.07379 -20.91227,-36.2211199 20.91226,-36.2211001 -20.91226,-12.07372 -4e-5,-24.14739 41.82456,1e-5 20.9123,36.22106 20.91229,-12.07369 41.82451,24.14735 z"
       id="path7-5-58-9-6-8-2" />
    <path
       style="fill:#00ccff;stroke:#0b2822;stroke-width:1;stroke-miterlimit:4;stroke-dasharray:none"
       d="m 174.47724,540.37849 20.91222,-36.22114 -20.9122,-36.22112 20.9123,-12.07366 -7e-5,-24.14746 h 41.82454 l 20.91226,36.2211 20.91228,-12.07369 20.91227,12.07366 -20.91228,36.22113 -41.82452,6e-5 -2e-5,24.14741 -41.82448,24.14741 z"
       id="path7-5-83-9-79" />
    <path
       style="fill:#00ccff;stroke:#0b2822;stroke-width:1;stroke-miterlimit:4;stroke-dasharray:none"
       d="m 69.915871,504.15728 41.824529,6e-5 20.91231,36.22106 20.91225,-12.07375 20.91228,12.07379 20.91227,-36.22112 -20.91225,-36.22109 20.91225,-12.07373 4e-5,-24.14739 -41.82456,1e-5 -20.91231,36.22107 -20.91229,-12.0737 -41.824499,24.14737 z"
       id="path7-0-0-8" />
    <path
       style="fill:#00ccff;stroke:#0b2822;stroke-width:1;stroke-miterlimit:4;stroke-dasharray:none"
       d="m 195.38953,576.59949 -41.82453,7e-5 -20.91231,36.22106 -20.91225,-12.07376 -20.912279,12.07379 -20.91227,-36.22111 20.91226,-36.22111 -20.91226,-12.07371 -4e-5,-24.1474 41.824559,10e-6 20.9123,36.22107 20.91229,-12.0737 41.82451,24.14736 z"
       id="path7-5-0-0-3-4" />
    <path
       style="fill:#00ccff;stroke:#0b2822;stroke-width:1;stroke-miterlimit:4;stroke-dasharray:none"
       d="m 7.1791133,467.93617 20.9123167,36.22107 41.824511,6e-5 -5e-5,24.14742 20.91235,12.07367 -20.91227,36.22112 -41.824531,-10e-6 -1.3e-5,24.14742 -20.9122337,12.07373 -20.9122713,-36.22114 20.9122033,-36.22112 -20.9122623,-12.07372 -3.6e-5,-48.29477 z"
       id="path7-5-5-8-0-3" />
    <path
       style="fill:#00ccff;stroke:#0b2822;stroke-width:1;stroke-miterlimit:4;stroke-dasharray:none"
       d="m 90.828201,395.49389 -20.91222,36.22114 20.91221,36.22111 -20.91231,12.07368 7e-5,24.14746 -41.824528,-1e-5 -20.9122647,-36.22111 -20.9122763,12.0737 -20.912276,-12.07366 20.912283,-36.22113 41.824515,-5e-5 2.2e-5,-24.14742 41.824475,-24.14741 z"
       id="path7-5-8-7-3-7" />
    <path
       style="fill:#00ccff;stroke:#0b2822;stroke-width:1;stroke-miterlimit:4;stroke-dasharray:none"
       d="m 195.38956,431.71499 -41.82453,6e-5 -20.91231,36.22106 -20.91225,-12.07376 -20.912279,12.07379 -20.91227,-36.22111 20.91226,-36.22111 -20.91226,-12.07371 -4e-5,-24.14739 h 41.824559 l 20.9123,36.22107 20.91229,-12.07369 41.82451,24.14735 z"
       id="path7-5-6-1-2-8" />
    <path
       style="fill:#00ccff;stroke:#0b2822;stroke-width:1;stroke-miterlimit:4;stroke-dasharray:none"
       d="m 237.21409,359.27275 -41.82453,7e-5 -20.91231,36.22105 -20.91225,-12.07375 -20.91228,12.07379 -20.91227,-36.22111 20.91226,-36.22111 -20.91226,-12.07371 -4e-5,-24.1474 41.82456,10e-6 20.9123,36.22107 20.91229,-12.0737 41.82451,24.14736 z"
       id="path7-5-58-7-8-3" />
    <path
       style="fill:#00ccff;stroke:#0b2822;stroke-width:1;stroke-miterlimit:4;stroke-dasharray:none"
       d="m 258.12641,467.9361 -20.91232,-36.22108 -41.82451,-6e-5 5e-5,-24.14741 -20.91235,-12.07367 20.91228,-36.22112 h 41.82452 l 2e-5,-24.14741 20.91223,-12.07373 20.91227,36.22114 -20.91221,36.22111 20.91227,12.07373 4e-5,48.29476 z"
       id="path7-5-58-9-6-8-7" />
    <path
       style="fill:#00ccff;stroke:#0b2822;stroke-width:1;stroke-miterlimit:4;stroke-dasharray:none"
       d="m 780.96404,-2.7919329 -41.82453,6e-5 L 718.2272,33.429185 697.31495,21.355432 676.40267,33.429223 655.4904,-2.7918889 676.40266,-39.012986 655.4904,-51.086708 l -4e-5,-24.147396 41.82456,8e-6 20.91232,36.221061 20.91227,-12.073688 41.82452,24.147359 z"
       id="path7-5-83-9-5-5" />
    <path
       style="fill:#00ccff;stroke:#0b2822;stroke-width:1;stroke-miterlimit:4;stroke-dasharray:none"
       d="m 801.87624,105.87148 -20.91222,-36.221139 20.91221,-36.221118 -20.9123,-12.073662 7e-5,-24.1474609 -41.82454,-3e-6 -20.91226,36.2210879 -20.91228,-12.073679 -20.91228,12.073666 20.91229,36.221127 41.82452,5.5e-5 2e-5,24.147422 41.82448,24.147394 z"
       id="path7-0-0-01-8" />
    <path
       style="fill:#00ccff;stroke:#0b2822;stroke-width:1;stroke-miterlimit:4;stroke-dasharray:none"
       d="m 801.87621,-39.013005 20.91232,36.2210761 41.82451,6.3e-5 -5e-5,24.1474129 20.91234,12.073669 -20.91227,36.221115 -41.82452,7e-6 -2e-5,24.147402 -20.91223,12.07374 -20.91228,-36.221144 20.91222,-36.221113 -20.91227,-12.073727 -3e-5,-48.294768 z"
       id="path7-5-0-0-3-2-8" />
    <path
       style="fill:#00ccff;stroke:#0b2822;stroke-width:1;stroke-miterlimit:4;stroke-dasharray:none"
       d="m 801.87622,178.31366 20.91221,-36.22113 -20.9122,-36.22112 20.91229,-12.07367 -6e-5,-24.147461 41.82454,3e-6 20.91226,36.221108 20.91228,-12.073698 20.91227,12.073658 -20.91228,36.22113 -41.82452,6e-5 -10e-6,24.14741 -41.82448,24.14742 z"
       id="path7-5-5-8-0-21-8" />
    <path
       style="fill:#00ccff;stroke:#0b2822;stroke-width:1;stroke-miterlimit:4;stroke-dasharray:none"
       d="m 697.31482,142.09257 41.82454,-6e-5 20.9123,-36.22106 20.91226,12.07375 20.91228,-12.07379 20.91226,36.22111 -20.91227,36.22111 20.91227,12.07371 3e-5,24.1474 -41.82455,-1e-5 -20.91231,-36.22107 -20.91229,12.07369 -41.8245,-24.14735 z"
       id="path7-5-8-7-3-18-5" />
    <path
       style="fill:#00ccff;stroke:#0b2822;stroke-width:1;stroke-miterlimit:4;stroke-dasharray:none"
       d="m 676.40253,33.429224 20.91232,36.221075 41.82451,6.3e-5 -5e-5,24.147414 20.91235,12.073674 -20.91227,36.22111 -41.82453,1e-5 -2e-5,24.1474 -20.91223,12.07373 -20.91228,-36.22113 20.91222,-36.22112 -20.91227,-12.073726 -3e-5,-48.294767 z"
       id="path7-5-6-1-2-5-6" />
    <path
       style="fill:#00ccff;stroke:#0b2822;stroke-width:1;stroke-miterlimit:4;stroke-dasharray:none"
       d="m 592.75345,33.429237 20.91232,36.221075 41.82451,6.3e-5 -5e-5,24.147413 20.91235,12.073672 -20.91227,36.22111 -41.82453,1e-5 -1e-5,24.1474 -20.91224,12.07374 -20.91227,-36.22114 20.91221,-36.22112 -20.91227,-12.073723 -3e-5,-48.294767 z"
       id="path7-5-58-7-8-9-5" />
    <path
       style="fill:#00ccff;stroke:#0b2822;stroke-width:1;stroke-miterlimit:4;stroke-dasharray:none"
       d="m 676.40251,-39.01304 -20.91222,36.2211361 20.91221,36.2211209 -20.9123,12.073665 7e-5,24.147461 -41.82455,-3e-6 -20.91226,-36.221098 -20.91228,12.073688 -20.91227,-12.07366 20.91229,-36.2211269 41.8245,-5.3e-5 3e-5,-24.1474191 41.82447,-24.147413 z"
       id="path7-5-58-9-6-8-2-2" />
    <path
       style="fill:#00ccff;stroke:#0b2822;stroke-width:1;stroke-miterlimit:4;stroke-dasharray:none"
       d="m 655.49022,359.41924 41.82454,-6e-5 20.9123,-36.22106 20.91226,12.07375 20.91228,-12.07379 20.91227,36.22111 -20.91226,36.2211 20.91226,12.07372 3e-5,24.1474 -41.82455,-10e-6 -20.91232,-36.22106 -20.91228,12.07369 -41.82451,-24.14736 z"
       id="path7-5-83-9-5-5-0" />
    <path
       style="fill:#00ccff;stroke:#0b2822;stroke-width:1;stroke-miterlimit:4;stroke-dasharray:none"
       d="m 634.57803,250.75582 20.91221,36.22114 -20.9122,36.22112 20.91229,12.07366 -7e-5,24.14746 41.82455,1e-5 20.91225,-36.22109 20.91229,12.07368 20.91228,-12.07367 -20.9123,-36.22113 -41.82451,-5e-5 -2e-5,-24.14742 -41.82448,-24.1474 z"
       id="path7-0-0-01-8-5" />
    <path
       style="fill:#00ccff;stroke:#0b2822;stroke-width:1;stroke-miterlimit:4;stroke-dasharray:none"
       d="m 634.57806,395.64031 -20.91232,-36.22108 -41.82451,-6e-5 5e-5,-24.14741 -20.91235,-12.07367 20.91227,-36.22112 h 41.82453 l 10e-6,-24.14741 20.91224,-12.07373 20.91227,36.22114 -20.91221,36.22111 20.91227,12.07373 3e-5,48.29477 z"
       id="path7-5-0-0-3-2-8-9" />
    <path
       style="fill:#00ccff;stroke:#0b2822;stroke-width:1;stroke-miterlimit:4;stroke-dasharray:none"
       d="m 634.57805,178.31364 -20.91221,36.22114 20.9122,36.22112 -20.9123,12.07366 7e-5,24.14746 h -41.82455 l -20.91225,-36.22111 -20.91229,12.0737 -20.91227,-12.07366 20.91229,-36.22113 41.82451,-6e-5 2e-5,-24.14741 41.82447,-24.14741 z"
       id="path7-5-5-8-0-21-8-1" />
    <path
       style="fill:#00ccff;stroke:#0b2822;stroke-width:1;stroke-miterlimit:4;stroke-dasharray:none"
       d="m 739.13944,214.53474 -41.82453,6e-5 -20.9123,36.22106 -20.91226,-12.07376 -20.91228,12.07379 -20.91226,-36.22111 20.91226,-36.2211 -20.91226,-12.07371 -4e-5,-24.1474 41.82456,1e-5 20.9123,36.22106 20.91229,-12.07369 41.82451,24.14735 z"
       id="path7-5-8-7-3-18-5-9" />
    <path
       style="fill:#00ccff;stroke:#0b2822;stroke-width:1;stroke-miterlimit:4;stroke-dasharray:none"
       d="m 760.05174,323.19808 -20.91232,-36.22108 -41.82451,-6e-5 5e-5,-24.14741 -20.91235,-12.07367 20.91227,-36.22112 h 41.82453 l 10e-6,-24.1474 20.91224,-12.07374 20.91227,36.22114 -20.91221,36.22111 20.91227,12.07373 3e-5,48.29477 z"
       id="path7-5-6-1-2-5-6-9" />
    <path
       style="fill:#00ccff;stroke:#0b2822;stroke-width:1;stroke-miterlimit:4;stroke-dasharray:none"
       d="m 843.70082,323.19807 -20.91233,-36.22108 -41.82451,-6e-5 6e-5,-24.14741 -20.91235,-12.07367 20.91227,-36.22112 41.82453,-1e-5 10e-6,-24.1474 20.91223,-12.07373 20.91228,36.22114 -20.91221,36.22111 20.91227,12.07373 3e-5,48.29476 z"
       id="path7-5-58-7-8-9-5-2" />
    <path
       style="fill:#00ccff;stroke:#0b2822;stroke-width:1;stroke-miterlimit:4;stroke-dasharray:none"
       d="m 760.05176,395.64034 20.91221,-36.22113 -20.9122,-36.22112 20.9123,-12.07367 -7e-5,-24.14746 h 41.82454 l 20.91227,36.2211 20.91227,-12.07369 20.91228,12.07366 -20.91229,36.22113 -41.82451,5e-5 -2e-5,24.14742 -41.82447,24.14742 z"
       id="path7-5-58-9-6-8-2-2-1" />
    <path
       style="fill:#00ccff;stroke:#0b2822;stroke-width:1;stroke-miterlimit:4;stroke-dasharray:none"
       d="m 885.6099,250.6825 20.91232,36.22108 41.82451,6e-5 -5e-5,24.14742 20.91237,12.07367 -20.91229,36.22111 h -41.82452 l -2e-5,24.14741 -20.91224,12.07373 -20.91227,-36.22113 20.9122,-36.22113 -20.91226,-12.07372 -3e-5,-48.29477 z"
       id="path7-5-83-9-5-5-69" />
    <path
       style="fill:#00ccff;stroke:#0b2822;stroke-width:1;stroke-miterlimit:4;stroke-dasharray:none"
       d="m 969.25905,178.2403 -20.91229,36.22108 -41.82451,6e-5 5e-5,24.14741 -20.91235,12.07367 20.91227,36.22112 h 41.82451 l 3e-5,24.14741 20.91219,12.07373 20.9123,-36.22114 -20.9122,-36.22112 20.9123,-12.07373 v -48.29476 z"
       id="path7-0-0-01-8-10" />
    <path
       style="fill:#00ccff;stroke:#0b2822;stroke-width:1;stroke-miterlimit:4;stroke-dasharray:none"
       d="m 843.78545,250.68257 20.91221,-36.22114 -20.9122,-36.22112 20.9123,-12.07366 -7e-5,-24.14746 h 41.82454 l 20.91227,36.2211 20.91227,-12.07369 20.91228,12.07366 -20.91229,36.22113 -41.82451,5e-5 -2e-5,24.14742 -41.82448,24.14741 z"
       id="path7-5-0-0-3-2-8-45" />
    <path
       style="fill:#00ccff;stroke:#0b2822;stroke-width:1;stroke-miterlimit:4;stroke-dasharray:none"
       d="m 1031.9959,142.01923 -41.82455,6e-5 -20.9123,36.22106 -20.91228,-12.07375 -20.91228,12.07379 -20.91227,-36.22112 20.91227,-36.2211 -20.91227,-12.073721 -4e-5,-24.14739 41.82456,10e-6 20.91231,36.221061 20.9123,-12.073691 41.82455,24.147351 z"
       id="path7-5-5-8-0-21-8-26" />
    <path
       style="fill:#00ccff;stroke:#0b2822;stroke-width:1;stroke-miterlimit:4;stroke-dasharray:none"
       d="m 1052.9082,250.6826 -20.9123,-36.22108 -41.82455,-5e-5 v -24.14743 l -20.9123,-12.07367 20.9123,-36.2211 h 41.82455 v -24.14741 l 20.9122,-12.07373 20.9123,36.22113 -20.9122,36.22112 20.9123,12.07373 v 48.29476 z"
       id="path7-5-8-7-3-18-5-2" />
    <path
       style="fill:#00ccff;stroke:#0b2822;stroke-width:1;stroke-miterlimit:4;stroke-dasharray:none"
       d="m 969.25905,323.12485 20.9123,-36.22114 -20.9122,-36.22112 20.9123,-12.07366 -1e-4,-24.14746 h 41.82455 l 20.9123,36.2211 20.9123,-12.07369 20.9123,12.07366 -20.9123,36.22113 -41.8245,5e-5 -1e-4,24.14742 -41.82445,24.14741 z"
       id="path7-5-6-1-2-5-6-09" />
    <path
       style="fill:#00ccff;stroke:#0b2822;stroke-width:1;stroke-miterlimit:4;stroke-dasharray:none"
       d="m 1011.0837,395.56707 20.9122,-36.22114 -20.9122,-36.22112 20.9123,-12.07366 -1e-4,-24.14746 h 41.8246 l 20.9123,36.2211 20.9122,-12.07369 20.9123,12.07366 -20.9123,36.22113 -41.8245,5e-5 v 24.14742 l -41.8245,24.14741 z"
       id="path7-5-58-7-8-9-5-7" />
    <path
       style="fill:#00ccff;stroke:#0b2822;stroke-width:1;stroke-miterlimit:4;stroke-dasharray:none"
       d="m 906.52227,359.346 41.82453,-6e-5 20.91235,-36.22106 20.9122,12.07375 20.91235,-12.07379 20.9123,36.22112 -20.9123,36.2211 20.9123,12.07372 v 24.14739 l -41.82465,-10e-6 -20.9123,-36.22106 -20.91225,12.07369 -41.82451,-24.14735 z"
       id="path7-5-58-9-6-8-2-2-7" />
    <path
       style="fill:#00ccff;stroke:#0b2822;stroke-width:1;stroke-miterlimit:4;stroke-dasharray:none"
       d="m 1052.9081,33.356061 20.9122,-36.2211409 -20.9122,-36.2211181 20.9123,-12.073667 v -24.147461 l 41.8245,2e-6 20.9123,36.221097 20.9122,-12.073688 20.9123,12.073666 -20.9123,36.2211221 -41.8245,6.9e-5 V 21.28235 l -41.8245,24.147411 z"
       id="path7-5-83-9-5-5-2" />
    <path
       style="fill:#00ccff;stroke:#0b2822;stroke-width:1;stroke-miterlimit:4;stroke-dasharray:none"
       d="m 948.3467,-2.8651539 41.82455,6e-5 20.91235,36.2210579 20.9122,-12.073748 20.9123,12.073791 20.9123,-36.2211169 -20.9123,-36.2210881 20.9123,-12.073731 v -24.147396 l -41.8245,1.3e-5 -20.9123,36.221065 -20.91235,-12.073692 -41.82453,24.147363 z"
       id="path7-0-0-01-8-43" />
    <path
       style="fill:#00ccff;stroke:#0b2822;stroke-width:1;stroke-miterlimit:4;stroke-dasharray:none"
       d="m 1073.8204,69.577062 -41.8245,6.5e-5 -20.9123,36.221053 -20.91235,-12.07375 -20.9123,12.07379 -20.91223,-36.221114 20.91223,-36.221107 -20.91223,-12.073712 -4e-5,-24.1473949 41.82457,9e-6 20.91235,36.2210629 20.9123,-12.073692 41.8245,24.147357 z"
       id="path7-5-0-0-3-2-8-6" />
    <path
       style="fill:#00ccff;stroke:#0b2822;stroke-width:1;stroke-miterlimit:4;stroke-dasharray:none"
       d="m 885.60994,-39.086265 20.91232,36.2210761 41.82451,6.2e-5 -5e-5,24.1474139 20.91233,12.073671 -20.91225,36.221117 -41.82453,-7e-6 -2e-5,24.147417 -20.91223,12.073735 -20.91227,-36.221142 20.9122,-36.221121 -20.91226,-12.073721 -4e-5,-48.294763 z"
       id="path7-5-5-8-0-21-8-56" />
    <path
       style="fill:#00ccff;stroke:#0b2822;stroke-width:1;stroke-miterlimit:4;stroke-dasharray:none"
       d="m 969.25905,-111.52854 -20.91224,36.221139 20.91224,36.221113 -20.91234,12.073672 7e-5,24.1474611 -41.82453,-7e-6 -20.91226,-36.2211051 -20.91228,12.073696 -20.91228,-12.073666 20.91229,-36.221122 41.82451,-5.5e-5 2e-5,-24.147427 41.82448,-24.147399 z"
       id="path7-5-8-7-3-18-5-31" />
    <path
       style="fill:#00ccff;stroke:#0b2822;stroke-width:1;stroke-miterlimit:4;stroke-dasharray:none"
       d="m 1073.8204,-75.307447 -41.8245,6.5e-5 -20.9123,36.221057 -20.91235,-12.073753 -20.9122,12.07379 -20.9123,-36.221114 20.9123,-36.221108 -20.9123,-12.07371 -4e-5,-24.1474 41.82454,1e-5 20.91235,36.22107 20.9123,-12.0737 41.8245,24.147359 z"
       id="path7-5-6-1-2-5-6-7" />
    <path
       style="fill:#00ccff;stroke:#0b2822;stroke-width:1;stroke-miterlimit:4;stroke-dasharray:none"
       d="m 1115.645,-147.74968 -41.8246,7e-5 -20.9123,36.22105 -20.9122,-12.07375 -20.9123,12.07379 -20.91235,-36.22111 20.91235,-36.22111 -20.91235,-12.07371 v -24.1474 l 41.82455,10e-6 20.9123,36.22106 20.9123,-12.07369 41.8245,24.14736 z"
       id="path7-5-58-7-8-9-5-75" />
    <path
       style="fill:#00ccff;stroke:#0b2822;stroke-width:1;stroke-miterlimit:4;stroke-dasharray:none"
       d="m 1136.5573,-39.086333 -20.9123,-36.221076 -41.8245,-6.1e-5 v -24.147411 l -20.9123,-12.073669 20.9122,-36.22112 h 41.8246 v -24.14741 l 20.9122,-12.07373 20.9123,36.22113 -20.9122,36.22112 20.9122,12.073729 10e-5,48.294761 z"
       id="path7-5-58-9-6-8-2-2-19" />
    <path
       style="fill:#00ccff;stroke:#0b2822;stroke-width:1;stroke-miterlimit:4;stroke-dasharray:none"
       d="m 948.26216,431.71494 -41.82453,6e-5 -20.91231,36.22106 -20.91225,-12.07375 -20.91228,12.07379 -20.91227,-36.22111 20.91226,-36.2211 -20.91226,-12.07372 -4e-5,-24.1474 41.82456,1e-5 20.91231,36.22106 20.91228,-12.07369 41.82452,24.14736 z"
       id="path7-5-83-9-5-5-8" />
    <path
       style="fill:#00ccff;stroke:#0b2822;stroke-width:1;stroke-miterlimit:4;stroke-dasharray:none"
       d="m 969.17435,540.37836 -20.91221,-36.22114 20.91221,-36.22112 -20.9123,-12.07366 7e-5,-24.14746 -41.82454,-1e-5 -20.91226,36.22109 -20.91229,-12.07368 -20.91227,12.07367 20.91229,36.22113 41.82452,5e-5 2e-5,24.14742 41.82448,24.1474 z"
       id="path7-0-0-01-8-7" />
    <path
       style="fill:#00ccff;stroke:#0b2822;stroke-width:1;stroke-miterlimit:4;stroke-dasharray:none"
       d="m 969.17435,395.49387 20.9123,36.22108 41.82455,6e-5 v 24.14741 l 20.9123,12.07367 -20.9123,36.22112 -41.82455,10e-6 v 24.1474 l -20.9122,12.07373 -20.91232,-36.22114 20.91222,-36.22111 -20.91227,-12.07373 -3e-5,-48.29476 z"
       id="path7-5-0-0-3-2-8-65" />
    <path
       style="fill:#00ccff;stroke:#0b2822;stroke-width:1;stroke-miterlimit:4;stroke-dasharray:none"
       d="m 969.17435,612.82054 20.9122,-36.22114 -20.9122,-36.22112 20.9123,-12.07366 -10e-5,-24.14746 h 41.82465 l 20.9122,36.22111 20.9123,-12.0737 20.9123,12.07366 -20.9123,36.22113 -41.8245,6e-5 v 24.14741 l -41.82455,24.14741 z"
       id="path7-5-5-8-0-21-8-22" />
    <path
       style="fill:#00ccff;stroke:#0b2822;stroke-width:1;stroke-miterlimit:4;stroke-dasharray:none"
       d="m 864.61294,576.59945 41.82454,-6e-5 20.91229,-36.22107 20.91227,12.07376 20.91231,-12.07379 20.9122,36.22111 -20.9122,36.2211 20.9122,12.07372 10e-5,24.14739 -41.82459,-10e-6 -20.91231,-36.22106 -20.91229,12.07369 -41.8245,-24.14735 z"
       id="path7-5-8-7-3-18-5-7" />
    <path
       style="fill:#00ccff;stroke:#0b2822;stroke-width:1;stroke-miterlimit:4;stroke-dasharray:none"
       d="m 843.70065,467.9361 20.91232,36.22108 41.82451,6e-5 -5e-5,24.14741 20.91234,12.07367 -20.91227,36.22112 h -41.82452 l -2e-5,24.14741 -20.91223,12.07373 -20.91228,-36.22114 20.91222,-36.22111 -20.91227,-12.07373 -3e-5,-48.29477 z"
       id="path7-5-6-1-2-5-6-79" />
    <path
       style="fill:#00ccff;stroke:#0b2822;stroke-width:1;stroke-miterlimit:4;stroke-dasharray:none"
       d="m 760.05157,467.93611 20.91232,36.22108 41.82451,6e-5 -5e-5,24.14742 20.91235,12.07367 -20.91227,36.22111 -41.82453,10e-6 -10e-6,24.1474 -20.91224,12.07373 -20.91227,-36.22114 20.91221,-36.22111 -20.91227,-12.07373 -3e-5,-48.29476 z"
       id="path7-5-58-7-8-9-5-26" />
    <path
       style="fill:#00ccff;stroke:#0b2822;stroke-width:1;stroke-miterlimit:4;stroke-dasharray:none"
       d="m 843.70063,395.49384 -20.91222,36.22113 20.91221,36.22113 -20.9123,12.07366 7e-5,24.14746 h -41.82455 l -20.91226,-36.2211 -20.91228,12.07369 -20.91227,-12.07366 20.91229,-36.22113 41.8245,-5e-5 3e-5,-24.14742 41.82447,-24.14741 z"
       id="path7-5-58-9-6-8-2-2-57" />
    <path
       style="fill:#00ccff;stroke:#0b2822;stroke-width:1;stroke-miterlimit:4;stroke-dasharray:none"
       d="m 634.57803,612.96712 20.91221,-36.22114 -20.9122,-36.22112 20.9123,-12.07367 -7e-5,-24.14746 h 41.82454 l 20.91226,36.2211 20.91228,-12.07369 20.91228,12.07367 -20.91229,36.22112 -41.82452,7e-5 -1e-5,24.14741 -41.82449,24.14741 z"
       id="path7-5-83-9-5-5-77" />
    <path
       style="fill:#00ccff;stroke:#0b2822;stroke-width:1;stroke-miterlimit:4;stroke-dasharray:none"
       d="m 530.01665,576.7459 41.82454,6e-5 20.9123,36.22106 20.91225,-12.07375 20.91228,12.07379 20.91227,-36.22111 -20.91225,-36.22109 20.91226,-12.07373 3e-5,-24.1474 -41.82456,1e-5 -20.91231,36.22107 -20.91229,-12.07369 -41.8245,24.14736 z"
       id="path7-0-0-01-8-20" />
    <path
       style="fill:#00ccff;stroke:#0b2822;stroke-width:1;stroke-miterlimit:4;stroke-dasharray:none"
       d="m 655.49031,649.18812 -41.82453,6e-5 -20.91231,36.22106 -20.91225,-12.07375 -20.91227,12.07379 -20.91227,-36.22112 20.91225,-36.22111 -20.91225,-12.07371 -5e-5,-24.14739 41.82457,10e-6 20.91229,36.22106 20.91229,-12.07369 41.82451,24.14735 z"
       id="path7-5-0-0-3-2-8-3" />
    <path
       style="fill:#00ccff;stroke:#0b2822;stroke-width:1;stroke-miterlimit:4;stroke-dasharray:none"
       d="m 467.27989,540.52479 20.91232,36.22108 41.82451,6e-5 -4e-5,24.14741 20.91234,12.07367 -20.91227,36.22112 -41.82453,-10e-6 -1e-5,24.14742 -20.91223,12.07373 -20.91228,-36.22114 20.91221,-36.22112 -20.91227,-12.07372 -3e-5,-48.29476 z"
       id="path7-5-5-8-0-21-8-8" />
    <path
       style="fill:#00ccff;stroke:#0b2822;stroke-width:1;stroke-miterlimit:4;stroke-dasharray:none"
       d="m 550.92898,468.08251 -20.91222,36.22114 20.91221,36.22112 -20.91231,12.07367 7e-5,24.14746 -41.82453,-10e-6 -20.91226,-36.2211 -20.91228,12.07369 -20.91227,-12.07366 20.91228,-36.22112 41.82452,-6e-5 2e-5,-24.14742 41.82447,-24.14741 z"
       id="path7-5-8-7-3-18-5-10" />
    <path
       style="fill:#00ccff;stroke:#0b2822;stroke-width:1;stroke-miterlimit:4;stroke-dasharray:none"
       d="m 655.49034,504.30361 -41.82453,6e-5 -20.91231,36.22106 -20.91225,-12.07375 -20.91228,12.07379 -20.91227,-36.22112 20.91226,-36.2211 -20.91225,-12.07372 -5e-5,-24.14739 41.82457,10e-6 20.91229,36.22106 20.91229,-12.07369 41.82451,24.14736 z"
       id="path7-5-6-1-2-5-6-4" />
    <path
       style="fill:#00ccff;stroke:#0b2822;stroke-width:1;stroke-miterlimit:4;stroke-dasharray:none"
       d="m 697.31487,431.86138 -41.82453,6e-5 -20.91231,36.22106 -20.91225,-12.07376 -20.91228,12.07379 -20.91227,-36.22111 20.91226,-36.22111 -20.91226,-12.07371 -4e-5,-24.14739 h 41.82456 l 20.9123,36.22107 20.91229,-12.07369 41.82451,24.14735 z"
       id="path7-5-58-7-8-9-5-701" />
    <path
       style="fill:#00ccff;stroke:#0b2822;stroke-width:1;stroke-miterlimit:4;stroke-dasharray:none"
       d="m 718.22719,540.52472 -20.91231,-36.22107 -41.82452,-7e-5 5e-5,-24.14741 -20.91235,-12.07367 20.91228,-36.22112 h 41.82452 l 2e-5,-24.14741 20.91223,-12.07373 20.91227,36.22114 -20.9122,36.22111 20.91226,12.07373 4e-5,48.29476 z"
       id="path7-5-58-9-6-8-2-2-59" />
    <path
       style="fill:#00ccff;stroke:#0b2822;stroke-width:1;stroke-miterlimit:4;stroke-dasharray:none"
       d="M 7.1793103,-38.86681 -13.732906,-2.6456689 7.1792983,33.575449 -13.733007,45.649115 l 7e-5,24.147462 -41.824536,-2e-6 -20.91226,-36.221097 -20.91228,12.073688 -20.912277,-12.073667 20.912283,-36.2211219 41.824519,-6.8e-5 1.8e-5,-24.1474091 41.824483,-24.147411 z"
       id="path7-5-83-9-5-5-5" />
    <path
       style="fill:#00ccff;stroke:#0b2822;stroke-width:1;stroke-miterlimit:4;stroke-dasharray:none"
       d="m 111.74068,-2.6455949 -41.824529,-6e-5 L 49.003843,-38.866714 28.091598,-26.792965 7.1793183,-38.866757 -13.732957,-2.6456389 7.1792983,33.575449 -13.732958,45.64918 l -3.7e-5,24.147396 41.824563,-1.3e-5 L 49.003873,33.575498 69.916161,45.64919 111.74066,21.501827 Z"
       id="path7-0-0-01-8-78" />
    <path
       style="fill:#00ccff;stroke:#0b2822;stroke-width:1;stroke-miterlimit:4;stroke-dasharray:none"
       d="m -13.732976,-75.087811 41.824533,-6.5e-5 20.91231,-36.221054 20.912244,12.073749 20.91228,-12.073789 20.912269,36.221114 -20.912259,36.221107 20.912259,12.073712 4e-5,24.1473961 -41.824559,-9e-6 -20.912298,-36.2210641 -20.912289,12.073693 -41.824511,-24.147357 z"
       id="path7-5-0-0-3-2-8-2" />
    <path
       style="fill:#00ccff;stroke:#0b2822;stroke-width:1;stroke-miterlimit:4;stroke-dasharray:none"
       d="m 174.47744,33.575515 -20.91232,-36.2210749 -41.82451,-6.2e-5 5e-5,-24.1474151 -20.912349,-12.07367 20.912279,-36.221117 41.82452,7e-6 2e-5,-24.147414 20.91223,-12.073729 20.91227,36.221132 -20.9122,36.221122 20.91226,12.073721 4e-5,48.294763 z"
       id="path7-5-5-8-0-21-8-3" />
    <path
       style="fill:#00ccff;stroke:#0b2822;stroke-width:1;stroke-miterlimit:4;stroke-dasharray:none"
       d="M 90.828361,106.01779 111.74057,69.796652 90.828361,33.575538 111.74067,21.501867 l -7e-5,-24.1474619 41.82453,7e-6 20.91227,36.2211059 20.91227,-12.073696 20.91228,12.073666 -20.91228,36.221122 -41.82452,5.5e-5 -2e-5,24.147422 -41.82448,24.147403 z"
       id="path7-5-8-7-3-18-5-6" />
    <path
       style="fill:#00ccff;stroke:#0b2822;stroke-width:1;stroke-miterlimit:4;stroke-dasharray:none"
       d="m -13.733005,69.796697 41.824532,-6.5e-5 20.91231,-36.221056 20.912244,12.073753 20.91228,-12.073791 20.912269,36.221115 -20.912259,36.221107 20.912259,12.07371 4e-5,24.1474 -41.824559,-1e-5 -20.912298,-36.22106 -20.912289,12.07369 -41.82451,-24.14736 z"
       id="path7-5-6-1-2-5-6-14" />
    <path
       style="fill:#00ccff;stroke:#0b2822;stroke-width:1;stroke-miterlimit:4;stroke-dasharray:none"
       d="m -55.557533,142.23893 41.824532,-6e-5 20.9123103,-36.22106 20.9122457,12.07375 20.912279,-12.07379 20.912267,36.22112 -20.912255,36.2211 20.912255,12.07372 5e-5,24.14739 -41.824567,-10e-6 -20.9122987,-36.22106 -20.9122893,12.07369 -41.82451,-24.14736 z"
       id="path7-5-58-7-8-9-5-1" />
    <path
       style="fill:#00ccff;stroke:#0b2822;stroke-width:1;stroke-miterlimit:4;stroke-dasharray:none"
       d="m -76.469857,33.575584 20.912317,36.221075 41.824514,6.2e-5 -5e-5,24.147415 20.9123493,12.073674 -20.9122753,36.22111 -41.824523,1e-5 -1.8e-5,24.1474 -20.912233,12.07373 -20.912271,-36.22113 20.912208,-36.22112 -20.912268,-12.073726 -3.6e-5,-48.294763 z"
       id="path7-5-58-9-6-8-2-2-8" />
    <path
       style="fill:#00ccff;stroke:#0b2822;stroke-width:1;stroke-miterlimit:4;stroke-dasharray:none"
       d="m 279.06959,142.09257 -41.82454,6e-5 -20.9123,36.22106 -20.91226,-12.07375 -20.91228,12.07379 -20.91226,-36.22112 20.91226,-36.22109 -20.91226,-12.073725 -4e-5,-24.147396 41.82455,8e-6 20.91232,36.221063 20.91228,-12.07369 41.82451,24.14736 z"
       id="path7-5-83-9-5-5-52-3" />
    <path
       style="fill:#00ccff;stroke:#0b2822;stroke-width:1;stroke-miterlimit:4;stroke-dasharray:none"
       d="m 299.98178,250.75599 -20.91221,-36.22115 20.9122,-36.22111 -20.91229,-12.07366 7e-5,-24.14747 H 237.245 l -20.91225,36.22109 -20.91229,-12.07368 -20.91228,12.07367 20.9123,36.22112 41.82451,6e-5 2e-5,24.14742 41.82448,24.1474 z"
       id="path7-0-0-01-8-8-9" />
    <path
       style="fill:#00ccff;stroke:#0b2822;stroke-width:1;stroke-miterlimit:4;stroke-dasharray:none"
       d="m 299.98175,105.8715 20.91233,36.22107 41.82451,7e-5 -6e-5,24.14741 20.91235,12.07367 -20.91227,36.22111 -41.82453,1e-5 -10e-6,24.1474 -20.91224,12.07374 -20.91227,-36.22114 20.91221,-36.22111 -20.91227,-12.07373 -3e-5,-48.29477 z"
       id="path7-5-0-0-3-2-8-22-2" />
    <path
       style="fill:#00ccff;stroke:#0b2822;stroke-width:1;stroke-miterlimit:4;stroke-dasharray:none"
       d="m 299.98176,323.19817 20.91221,-36.22114 -20.9122,-36.22112 20.9123,-12.07367 -7e-5,-24.14746 41.82455,10e-6 20.91225,36.2211 20.91229,-12.07369 20.91227,12.07366 -20.91229,36.22112 -41.82451,6e-5 -2e-5,24.14742 -41.82447,24.14741 z"
       id="path7-5-5-8-0-21-8-0-4" />
    <path
       style="fill:#00ccff;stroke:#0b2822;stroke-width:1;stroke-miterlimit:4;stroke-dasharray:none"
       d="m 195.42037,286.97707 41.82453,-6e-5 20.9123,-36.22106 20.91226,12.07376 20.91228,-12.07379 20.91226,36.2211 -20.91226,36.22111 20.91226,12.07371 4e-5,24.1474 -41.82455,-10e-6 -20.91231,-36.22107 -20.91229,12.0737 -41.82451,-24.14736 z"
       id="path7-5-8-7-3-18-5-72-6" />
    <path
       style="fill:#00ccff;stroke:#0b2822;stroke-width:1;stroke-miterlimit:4;stroke-dasharray:none"
       d="m 174.50807,178.31373 20.91233,36.22107 41.82451,7e-5 -6e-5,24.14741 20.91235,12.07367 -20.91227,36.22111 -41.82453,1e-5 -1e-5,24.1474 -20.91224,12.07374 -20.91227,-36.22114 20.91221,-36.22111 -20.91227,-12.07373 -3e-5,-48.29477 z"
       id="path7-5-6-1-2-5-6-04-7" />
    <path
       style="fill:#00ccff;stroke:#0b2822;stroke-width:1;stroke-miterlimit:4;stroke-dasharray:none"
       d="m 90.859001,178.31374 20.912319,36.22108 41.82451,6e-5 -6e-5,24.14741 20.91235,12.07367 -20.91227,36.22112 h -41.82452 l -2e-5,24.1474 -20.912229,12.07374 -20.91228,-36.22114 20.91221,-36.22111 -20.91226,-12.07373 -4e-5,-48.29477 z"
       id="path7-5-58-7-8-9-5-11-1" />
    <path
       style="fill:#00ccff;stroke:#0b2822;stroke-width:1;stroke-miterlimit:4;stroke-dasharray:none"
       d="m 174.50805,105.87146 -20.91221,36.22114 20.9122,36.22112 -20.9123,12.07367 7e-5,24.14746 -41.82454,-1e-5 -20.912269,-36.22109 -20.91227,12.07368 -20.912277,-12.07366 20.912287,-36.22112 41.824509,-6e-5 2e-5,-24.14742 41.82448,-24.14741 z"
       id="path7-5-58-9-6-8-2-2-11-3" />
    <path
       style="fill:#00ccff;stroke:#0b2822;stroke-width:1;stroke-miterlimit:4;stroke-dasharray:none"
       d="m 383.63087,323.19796 -20.91221,36.22114 20.9122,36.22111 -20.9123,12.07367 7e-5,24.14746 h -41.82454 l -20.91226,-36.2211 -20.91228,12.07369 -20.91228,-12.07367 20.91229,-36.22112 41.82452,-7e-5 1e-5,-24.1474 41.82449,-24.14742 z"
       id="path7-5-83-9-5-5-52-40" />
    <path
       style="fill:#00ccff;stroke:#0b2822;stroke-width:1;stroke-miterlimit:4;stroke-dasharray:none"
       d="m 488.19225,359.41917 -41.82454,-6e-5 -20.9123,-36.22106 -20.91225,12.07375 -20.91228,-12.07379 -20.91227,36.22112 20.91225,36.22108 -20.91225,12.07373 -4e-5,24.1474 41.82456,-10e-6 20.91231,-36.22107 20.91229,12.0737 41.8245,-24.14737 z"
       id="path7-0-0-01-8-8-6" />
    <path
       style="fill:#00ccff;stroke:#0b2822;stroke-width:1;stroke-miterlimit:4;stroke-dasharray:none"
       d="m 362.71859,286.97695 41.82453,-6e-5 20.91231,-36.22106 20.91225,12.07376 20.91228,-12.07379 20.91227,36.22111 -20.91226,36.22111 20.91225,12.07371 5e-5,24.14739 -41.82457,-1e-5 -20.91229,-36.22106 -20.91229,12.07369 -41.82451,-24.14735 z"
       id="path7-5-0-0-3-2-8-22-3" />
    <path
       style="fill:#00ccff;stroke:#0b2822;stroke-width:1;stroke-miterlimit:4;stroke-dasharray:none"
       d="m 550.92901,395.64028 -20.91232,-36.22107 -41.82451,-7e-5 4e-5,-24.14741 -20.91234,-12.07367 20.91227,-36.22112 41.82453,10e-6 1e-5,-24.14742 20.91223,-12.07373 20.91228,36.22114 -20.91221,36.22112 20.91227,12.07372 3e-5,48.29476 z"
       id="path7-5-5-8-0-21-8-0-3" />
    <path
       style="fill:#00ccff;stroke:#0b2822;stroke-width:1;stroke-miterlimit:4;stroke-dasharray:none"
       d="m 467.27992,468.08256 20.91222,-36.22114 -20.91221,-36.22112 20.91231,-12.07367 -7e-5,-24.14746 41.82453,10e-6 20.91226,36.2211 20.91228,-12.07369 20.91227,12.07366 -20.91228,36.22112 -41.82452,6e-5 -2e-5,24.14742 -41.82447,24.14741 z"
       id="path7-5-8-7-3-18-5-72-5" />
    <path
       style="fill:#00ccff;stroke:#0b2822;stroke-width:1;stroke-miterlimit:4;stroke-dasharray:none"
       d="m 362.71856,431.86146 41.82453,-6e-5 20.91231,-36.22106 20.91225,12.07375 20.91228,-12.07379 20.91227,36.22112 -20.91226,36.2211 20.91225,12.07372 5e-5,24.14739 -41.82457,-10e-6 -20.91229,-36.22106 -20.91229,12.07369 -41.82451,-24.14735 z"
       id="path7-5-6-1-2-5-6-04-2" />
    <path
       style="fill:#00ccff;stroke:#0b2822;stroke-width:1;stroke-miterlimit:4;stroke-dasharray:none"
       d="m 320.89403,504.3037 41.82453,-7e-5 20.91231,-36.22106 20.91225,12.07376 20.91228,-12.07379 20.91227,36.22111 -20.91226,36.22111 20.91226,12.07371 4e-5,24.1474 -41.82456,-10e-6 -20.9123,-36.22107 -20.91229,12.0737 -41.82451,-24.14736 z"
       id="path7-5-58-7-8-9-5-11-11" />
    <path
       style="fill:#00ccff;stroke:#0b2822;stroke-width:1;stroke-miterlimit:4;stroke-dasharray:none"
       d="m 299.98171,395.64035 20.91231,36.22107 41.82452,7e-5 -5e-5,24.14741 20.91235,12.07367 -20.91228,36.22112 h -41.82452 l -2e-5,24.14741 -20.91223,12.07373 -20.91227,-36.22114 20.9122,-36.22111 -20.91226,-12.07373 -4e-5,-48.29476 z"
       id="path7-5-58-9-6-8-2-2-11-5" />
    <path
       style="fill:#00ccff;stroke:#0b2822;stroke-width:1;stroke-miterlimit:4;stroke-dasharray:none"
       d="m 362.68771,576.59952 -41.82454,6e-5 -20.9123,36.22106 -20.91226,-12.07376 -20.91228,12.07379 -20.91226,-36.22111 20.91226,-36.2211 -20.91226,-12.07372 -4e-5,-24.14739 h 41.82455 l 20.91232,36.22107 20.91228,-12.07369 41.82451,24.14736 z"
       id="path7-5-83-9-5-5-52-7" />
    <path
       style="fill:#00ccff;stroke:#0b2822;stroke-width:1;stroke-miterlimit:4;stroke-dasharray:none"
       d="m 383.5999,685.26293 -20.91221,-36.22114 20.9122,-36.22112 -20.91229,-12.07366 7e-5,-24.14746 h -41.82455 l -20.91225,36.22109 -20.91229,-12.07368 -20.91228,12.07366 20.9123,36.22113 41.82451,5e-5 2e-5,24.14743 41.82448,24.14739 z"
       id="path7-0-0-01-8-8-7" />
    <path
       style="fill:#00ccff;stroke:#0b2822;stroke-width:1;stroke-miterlimit:4;stroke-dasharray:none"
       d="m 383.59987,540.37845 20.91233,36.22107 41.82451,6e-5 -6e-5,24.14742 20.91235,12.07367 -20.91227,36.22111 -41.82453,10e-6 -1e-5,24.1474 -20.91224,12.07374 -20.91227,-36.22114 20.91221,-36.22112 -20.91227,-12.07372 -3e-5,-48.29477 z"
       id="path7-5-0-0-3-2-8-22-5" />
    <path
       style="fill:#00ccff;stroke:#0b2822;stroke-width:1;stroke-miterlimit:4;stroke-dasharray:none"
       d="m 383.59988,757.70511 20.91221,-36.22113 -20.9122,-36.22113 20.9123,-12.07366 -7e-5,-24.14746 h 41.82455 l 20.91225,36.22111 20.91229,-12.0737 20.91227,12.07366 -20.91229,36.22113 -41.82451,6e-5 -2e-5,24.14741 -41.82447,24.14741 z"
       id="path7-5-5-8-0-21-8-0-81" />
    <path
       style="fill:#00ccff;stroke:#0b2822;stroke-width:1;stroke-miterlimit:4;stroke-dasharray:none"
       d="m 279.03849,721.48402 41.82453,-6e-5 20.9123,-36.22106 20.91226,12.07375 20.91228,-12.07379 20.91226,36.22111 -20.91226,36.2211 20.91226,12.07372 4e-5,24.14739 H 362.68761 L 341.7753,757.70511 320.86301,769.7788 279.0385,745.63145 Z"
       id="path7-5-8-7-3-18-5-72-2" />
    <path
       style="fill:#00ccff;stroke:#0b2822;stroke-width:1;stroke-miterlimit:4;stroke-dasharray:none"
       d="m 258.12619,612.82067 20.91233,36.22108 41.82451,6e-5 -6e-5,24.14742 20.91235,12.07367 -20.91227,36.22111 -41.82453,10e-6 -1e-5,24.1474 -20.91224,12.07373 -20.91227,-36.22114 20.91221,-36.22111 -20.91227,-12.07373 -3e-5,-48.29476 z"
       id="path7-5-6-1-2-5-6-04-5" />
    <path
       style="fill:#00ccff;stroke:#0b2822;stroke-width:1;stroke-miterlimit:4;stroke-dasharray:none"
       d="m 174.47712,612.82069 20.91232,36.22107 41.82451,7e-5 -6e-5,24.14741 20.91235,12.07367 -20.91227,36.22111 -41.82452,10e-6 -2e-5,24.1474 -20.91223,12.07374 -20.91228,-36.22114 20.91221,-36.22112 -20.91226,-12.07372 -4e-5,-48.29477 z"
       id="path7-5-58-7-8-9-5-11-5" />
    <path
       style="fill:#00ccff;stroke:#0b2822;stroke-width:1;stroke-miterlimit:4;stroke-dasharray:none"
       d="m 258.12617,540.37841 -20.91221,36.22114 20.9122,36.22112 -20.9123,12.07366 7e-5,24.14746 h -41.82454 l -20.91227,-36.2211 -20.91227,12.07369 -20.91228,-12.07366 20.91229,-36.22113 41.82451,-5e-5 2e-5,-24.14742 41.82448,-24.14741 z"
       id="path7-5-58-9-6-8-2-2-11-50" />
    <path
       style="fill:#00ccff;stroke:#0b2822;stroke-width:1;stroke-miterlimit:4;stroke-dasharray:none"
       d="m 383.63096,-38.739701 -20.91232,-36.22108 -41.82451,-6e-5 5e-5,-24.14742 -20.91235,-12.073669 20.91227,-36.22111 h 41.82452 l 2e-5,-24.14741 20.91224,-12.07373 20.91227,36.22113 -20.9122,36.22113 20.91226,12.073719 3e-5,48.29477 z"
       id="path7-5-83-9-5-5-52-46" />
    <path
       style="fill:#00ccff;stroke:#0b2822;stroke-width:1;stroke-miterlimit:4;stroke-dasharray:none"
       d="m 299.98178,33.702499 20.91232,-36.2210799 41.82451,-6e-5 -5e-5,-24.1474101 20.91235,-12.07367 -20.91227,-36.22112 h -41.82451 l -3e-5,-24.14741 -20.91224,-12.073729 -20.91227,36.221139 20.91221,36.22112 -20.91227,12.07373 -2e-5,48.29476 z"
       id="path7-0-0-01-8-8-95" />
    <path
       style="fill:#00ccff;stroke:#0b2822;stroke-width:1;stroke-miterlimit:4;stroke-dasharray:none"
       d="m 425.45541,-38.739771 -20.91221,36.2211401 20.9122,36.2211199 -20.9123,12.07366 7e-5,24.14746 h -41.82454 l -20.91227,-36.2211 -20.91227,12.07369 -20.91228,-12.07366 20.91229,-36.2211299 41.82451,-5e-5 2e-5,-24.1474201 41.82448,-24.14741 z"
       id="path7-5-0-0-3-2-8-22-4" />
    <path
       style="fill:#00ccff;stroke:#0b2822;stroke-width:1;stroke-miterlimit:4;stroke-dasharray:none"
       d="m 237.245,69.923569 41.82453,-6e-5 20.91231,-36.22106 20.91225,12.07375 20.91228,-12.07379 20.91227,36.22112 -20.91227,36.221101 20.91227,12.07372 4e-5,24.14739 -41.82456,-10e-6 -20.91231,-36.22106 -20.91228,12.07369 -41.82451,-24.147351 z"
       id="path7-5-5-8-0-21-8-0-2" />
    <path
       style="fill:#00ccff;stroke:#0b2822;stroke-width:1;stroke-miterlimit:4;stroke-dasharray:none"
       d="m 216.33269,-38.739801 20.91232,36.2210801 41.82451,5e-5 -5e-5,24.1474299 20.91235,12.07367 -20.91227,36.2211 h -41.82453 l -1e-5,24.14741 -20.91224,12.073731 -20.91227,-36.221131 20.91221,-36.22112 -20.91227,-12.07373 -3e-5,-48.29476 z"
       id="path7-5-8-7-3-18-5-72-0" />
    <path
       style="fill:#00ccff;stroke:#0b2822;stroke-width:1;stroke-miterlimit:4;stroke-dasharray:none"
       d="m 299.98176,-111.18205 -20.91221,36.221139 20.9122,36.22112 -20.9123,12.07366 7e-5,24.1474601 h -41.82454 l -20.91227,-36.2211001 -20.91227,12.07369 -20.91228,-12.07366 20.91229,-36.22113 41.82451,-5e-5 2e-5,-24.14742 41.82448,-24.147409 z"
       id="path7-5-6-1-2-5-6-04-4" />
    <path
       style="fill:#00ccff;stroke:#0b2822;stroke-width:1;stroke-miterlimit:4;stroke-dasharray:none"
       d="m 258.15721,-183.62427 -20.91221,36.22114 20.9122,36.22112 -20.9123,12.073659 7e-5,24.14746 h -41.82454 l -20.91227,-36.221099 -20.91227,12.073689 -20.91228,-12.073659 20.91229,-36.22113 41.82451,-5e-5 2e-5,-24.14742 41.82448,-24.14741 z"
       id="path7-5-58-7-8-9-5-11-4" />
    <path
       style="fill:#00ccff;stroke:#0b2822;stroke-width:1;stroke-miterlimit:4;stroke-dasharray:none"
       d="m 362.71859,-147.4032 -41.82453,6e-5 -20.91231,36.22106 -20.91225,-12.07375 -20.91228,12.07379 -20.91227,-36.22112 20.91226,-36.2211 -20.91226,-12.07372 -4e-5,-24.14739 41.82456,1e-5 20.9123,36.22106 20.91229,-12.07369 41.82451,24.14735 z"
       id="path7-5-58-9-6-8-2-2-11-6" />
    <path
       style="fill:#00ccff;stroke:#0b2822;stroke-width:1;stroke-miterlimit:4;stroke-dasharray:none"
       d="m -118.49462,250.75584 20.912321,36.22108 41.82451,6e-5 -5e-5,24.14742 20.91235,12.07367 -20.91227,36.22111 h -41.82452 l -2e-5,24.14741 -20.912241,12.07373 -20.91227,-36.22113 20.9122,-36.22113 -20.91226,-12.07372 -3e-5,-48.29477 z"
       id="path7-5-83-9-5-5-52-8" />
    <path
       style="fill:#00ccff;stroke:#0b2822;stroke-width:1;stroke-miterlimit:4;stroke-dasharray:none"
       d="m -34.845439,178.31364 -20.91232,36.22108 -41.82451,6e-5 5e-5,24.14741 -20.912351,12.07367 20.912271,36.22112 h 41.82451 l 3e-5,24.14741 20.91224,12.07373 20.91227,-36.22114 -20.91221,-36.22112 20.91227,-12.07373 2e-5,-48.29476 z"
       id="path7-0-0-01-8-8-3" />
    <path
       style="fill:#00ccff;stroke:#0b2822;stroke-width:1;stroke-miterlimit:4;stroke-dasharray:none"
       d="m -160.31907,250.75591 20.91221,-36.22114 -20.9122,-36.22112 20.9123,-12.07366 -7e-5,-24.14746 h 41.824541 l 20.91227,36.2211 20.91227,-12.07369 20.91228,12.07366 -20.91229,36.22113 -41.82451,5e-5 -2e-5,24.14742 -41.824481,24.14741 z"
       id="path7-5-0-0-3-2-8-22-34" />
    <path
       style="fill:#00ccff;stroke:#0b2822;stroke-width:1;stroke-miterlimit:4;stroke-dasharray:none"
       d="m 27.891341,142.09257 -41.82453,6e-5 -20.91231,36.22106 -20.91225,-12.07375 -20.91228,12.07379 -20.91227,-36.22112 20.91227,-36.2211 -20.91227,-12.073721 -4e-5,-24.14739 41.82456,1e-5 20.91231,36.221061 20.91228,-12.073691 41.82451,24.147351 z"
       id="path7-5-5-8-0-21-8-0-1" />
    <path
       style="fill:#00ccff;stroke:#0b2822;stroke-width:1;stroke-miterlimit:4;stroke-dasharray:none"
       d="m 48.803651,250.75594 -20.91232,-36.22108 -41.82451,-5e-5 5e-5,-24.14743 -20.91235,-12.07367 20.91227,-36.2211 h 41.82453 l 10e-6,-24.14741 20.91224,-12.07373 20.91227,36.22113 -20.91221,36.22112 20.91227,12.07373 3e-5,48.29476 z"
       id="path7-5-8-7-3-18-5-72-4" />
    <path
       style="fill:#00ccff;stroke:#0b2822;stroke-width:1;stroke-miterlimit:4;stroke-dasharray:none"
       d="m -34.845419,323.19819 20.91221,-36.22114 -20.9122,-36.22112 20.9123,-12.07366 -7e-5,-24.14746 h 41.82454 l 20.91227,36.2211 20.91227,-12.07369 20.91228,12.07366 -20.91229,36.22113 -41.82451,5e-5 -2e-5,24.14742 -41.82448,24.14741 z"
       id="path7-5-6-1-2-5-6-04-43" />
    <path
       style="fill:#00ccff;stroke:#0b2822;stroke-width:1;stroke-miterlimit:4;stroke-dasharray:none"
       d="M 6.9791313,395.64041 27.891341,359.41927 6.9791413,323.19815 27.891441,311.12449 l -7e-5,-24.14746 h 41.82454 l 20.91227,36.2211 20.912269,-12.07369 20.91228,12.07366 -20.91229,36.22113 -41.824509,5e-5 -2e-5,24.14742 -41.82448,24.14741 z"
       id="path7-5-58-7-8-9-5-11-3" />
    <path
       style="fill:#00ccff;stroke:#0b2822;stroke-width:1;stroke-miterlimit:4;stroke-dasharray:none"
       d="m -97.582249,359.41934 41.82453,-6e-5 20.91231,-36.22106 20.91225,12.07375 20.9122803,-12.07379 20.9122697,36.22112 -20.9122597,36.2211 20.9122597,12.07372 4e-5,24.14739 -41.82456,-1e-5 -20.9123,-36.22106 -20.91229,12.07369 -41.82451,-24.14735 z"
       id="path7-5-58-9-6-8-2-2-11-59" />
  </g>
</svg>
